<?xml version="1.0" standalone="no"?>
<!DOCTYPE svg PUBLIC "-//W3C//DTD SVG 20010904//EN"
 "http://www.w3.org/TR/2001/REC-SVG-20010904/DTD/svg10.dtd">
<svg version="1.0" xmlns="http://www.w3.org/2000/svg"
 width="1470.000000pt" height="1464.000000pt" viewBox="0 0 1470.000000 1464.000000"
 preserveAspectRatio="xMidYMid meet">

<g transform="translate(0.000000,1464.000000) scale(0.100000,-0.100000)"
fill="#01759A" stroke="none">
<path d="M7586 14613 c-31 -110 -41 -1532 -16 -2388 7 -247 14 -790 15 -1205
2 -727 3 -758 23 -832 24 -89 47 -136 98 -204 57 -77 92 -111 379 -373 517
-471 790 -742 1445 -1434 135 -142 256 -272 270 -289 45 -55 234 -220 309
-270 154 -100 312 -123 776 -113 154 4 501 2 770 -4 1351 -29 1791 -34 2192
-22 383 11 774 35 816 50 16 6 -215 243 -1429 1462 -2382 2392 -2624 2637
-3255 3289 -1133 1172 -1655 1687 -2296 2268 -74 67 -92 79 -97 65z"/>
<path d="M6954 14431 c-917 -840 -4990 -4897 -6271 -6246 -339 -358 -593 -643
-593 -667 0 -5 889 -7 2047 -5 1835 3 2059 5 2153 20 276 43 309 66 720 512
264 286 1120 1140 1490 1487 350 328 458 438 518 527 90 135 105 221 106 596
2 650 -17 3871 -23 3887 -5 15 -33 -6 -147 -111z"/>
<path d="M38 7073 c175 -220 1793 -1857 3935 -3982 841 -834 1671 -1664 1845
-1846 690 -719 1117 -1127 1272 -1214 l41 -23 -1 1949 c0 1071 0 1993 1 2048
3 152 -28 241 -118 351 -27 33 -631 640 -1343 1349 -1003 1000 -1307 1297
-1347 1318 -110 58 -40 56 -1933 72 -960 8 -1888 15 -2063 15 l-319 0 30 -37z"/>
<path d="M10841 7090 c-271 -17 -494 -55 -580 -99 -21 -11 -346 -340 -791
-802 -726 -753 -873 -898 -1405 -1384 -251 -229 -358 -347 -414 -455 -72 -138
-76 -165 -74 -515 0 -170 5 -1101 10 -2068 l8 -1758 60 42 c198 137 658 582
1340 1294 216 226 861 872 1432 1437 1172 1158 3164 3153 3563 3568 418 434
643 679 670 731 l12 21 -784 -8 c-930 -11 -1605 -11 -2353 -2 -304 4 -615 3
-694 -2z"/>
</g>
</svg>
